<svg xmlns="http://www.w3.org/2000/svg" width="1200" height="630" viewBox="0 0 1200 630">
  <defs>
    <linearGradient id="bg" x1="0" y1="0" x2="1" y2="1">
      <stop offset="0" stop-color="#013b3a"/>
      <stop offset="1" stop-color="#0f766e"/>
    </linearGradient>
  </defs>
  <rect width="1200" height="630" fill="url(#bg)"/>
  <g transform="translate(600 260)">
    <rect x="-220" y="-150" width="440" height="300" rx="20" fill="#ffffff" fill-opacity="0.9"/>
    <g fill="none" stroke="#0f766e" stroke-width="2" stroke-opacity="0.5">
      <path d="M-190 -120 h380 M-190 -85 h380 M-190 -50 h380 M-190 -15 h380 M-190 20 h380 M-190 55 h380 M-190 90 h380 M-190 125 h380"/>
      <path d="M-190 -120 v245 M-90 -120 v245 M10 -120 v245 M110 -120 v245 M190 -120 v245"/>
    </g>
    <g fill="#0f766e" fill-opacity="0.4">
      <circle cx="-60" cy="-55" r="18"/>
      <circle cx="30" cy="70" r="22"/>
      <circle cx="110" cy="-30" r="14"/>
    </g>
    <rect x="-265" y="-150" width="45" height="300" rx="6" fill="#012604"/>
  </g>
  <text x="600" y="540" text-anchor="middle" font-family="Arial, sans-serif" font-size="26" fill="#a7f3d0" font-weight="bold" letter-spacing="2">Resize for Instagram</text>
</svg>
